<svg xmlns="http://www.w3.org/2000/svg" xmlns:xlink="http://www.w3.org/1999/xlink" contentStyleType="text/css" height="1045px" preserveAspectRatio="none" style="width:1534px;height:1045px;background:#FFFFFF;" version="1.1" viewBox="0 0 1534 1045" width="1534px" zoomAndPan="magnify"><defs/><g><rect fill="none" height="20.9531" style="stroke:none;stroke-width:1.0;" width="1501.6086" x="15" y="12.7451"/><ellipse cx="574.1653" cy="48.6982" fill="#222222" rx="10" ry="10" style="stroke:#222222;stroke-width:1.0;"/><rect fill="#F1F1F1" height="33.9688" rx="12.5" ry="12.5" style="stroke:#181818;stroke-width:0.5;" width="67.4492" x="540.4407" y="134.4087"/><text fill="#000000" font-family="sans-serif" font-size="12" lengthAdjust="spacing" textLength="47.4492" x="550.4407" y="155.5474">recheck</text><polygon fill="#F1F1F1" points="479.3225,78.6982,669.0081,78.6982,681.0081,90.6982,669.0081,102.6982,479.3225,102.6982,467.3225,90.6982,479.3225,78.6982" style="stroke:#181818;stroke-width:0.5;"/><text fill="#000000" font-family="sans-serif" font-size="11" lengthAdjust="spacing" textLength="71.7095" x="578.1653" y="112.9087">Not detected</text><text fill="#000000" font-family="sans-serif" font-size="11" lengthAdjust="spacing" textLength="189.6855" x="479.3225" y="94.5063">Detect $RUN_ID.csv (samples.csv)</text><text fill="#000000" font-family="sans-serif" font-size="11" lengthAdjust="spacing" textLength="50.4292" x="416.8933" y="88.104">Detected</text><path d="M160.5662,207.229 L160.5662,247.4946 A0,0 0 0 0 160.5662,247.4946 L439.5286,247.4946 A0,0 0 0 0 439.5286,247.4946 L439.5286,231.3618 L459.5286,227.3618 L439.5286,223.3618 L439.5286,217.229 L429.5286,207.229 L160.5662,207.229 A0,0 0 0 0 160.5662,207.229 " fill="#FEFFDD" style="stroke:#181818;stroke-width:0.5;"/><path d="M429.5286,207.229 L429.5286,217.229 L439.5286,217.229 L429.5286,207.229 " fill="#FEFFDD" style="stroke:#181818;stroke-width:0.5;"/><text fill="#000000" font-family="sans-serif" font-size="13" lengthAdjust="spacing" textLength="237.9927" x="176.551" y="224.2959">mkdir -p "/staging/${RUN_ID}/fastq"</text><text fill="#000000" font-family="sans-serif" font-size="13" lengthAdjust="spacing" textLength="257.9624" x="166.5662" y="239.4287">mkdir -p "/staging/${RUN_ID}/analysis"</text><rect fill="#F1F1F1" height="33.9688" rx="12.5" ry="12.5" style="stroke:#181818;stroke-width:0.5;" width="229.2734" x="459.5286" y="210.3774"/><text fill="#000000" font-family="sans-serif" font-size="12" lengthAdjust="spacing" textLength="209.2734" x="469.5286" y="231.5161">create required directory structure</text><rect fill="#F1F1F1" height="47.9375" rx="12.5" ry="12.5" style="stroke:#181818;stroke-width:0.5;" width="233.2168" x="457.5569" y="267.4946"/><text fill="#000000" font-family="sans-serif" font-size="12" lengthAdjust="spacing" textLength="213.2168" x="467.5569" y="288.6333">Copy $RUN_ID.csv (samples.csv) to</text><text fill="#000000" font-family="sans-serif" font-size="12" lengthAdjust="spacing" textLength="120.3516" x="515.8967" y="302.6021">/staging/${RUN_ID}</text><rect fill="#F1F1F1" height="47.9375" rx="12.5" ry="12.5" style="stroke:#181818;stroke-width:0.5;" width="217.2793" x="465.5256" y="335.4321"/><text fill="#000000" font-family="sans-serif" font-size="12" lengthAdjust="spacing" textLength="172.5352" x="487.8977" y="356.5708">Run convert_samples_csv.sh</text><text fill="#000000" font-family="sans-serif" font-size="12" lengthAdjust="spacing" textLength="197.2793" x="475.5256" y="370.5396">Generate SampleSheet.fastq.csv</text><rect fill="#F1F1F1" height="47.9375" rx="12.5" ry="12.5" style="stroke:#181818;stroke-width:0.5;" width="235.7129" x="456.3088" y="403.3696"/><text fill="#000000" font-family="sans-serif" font-size="12" lengthAdjust="spacing" textLength="148.6523" x="499.8391" y="424.5083">Run fix_sample_sheet.sh</text><text fill="#000000" font-family="sans-serif" font-size="12" lengthAdjust="spacing" textLength="215.7129" x="466.3088" y="438.4771">Generate SampleSheet.analysis.csv</text><rect fill="#F1F1F1" height="33.9688" rx="12.5" ry="12.5" style="stroke:#181818;stroke-width:0.5;" width="67.4492" x="540.4407" y="528.627"/><text fill="#000000" font-family="sans-serif" font-size="12" lengthAdjust="spacing" textLength="47.4492" x="550.4407" y="549.7656">recheck</text><polygon fill="#F1F1F1" points="483.0635,471.3071,665.2671,471.3071,677.2671,484.1118,665.2671,496.9165,483.0635,496.9165,471.0635,484.1118,483.0635,471.3071" style="stroke:#181818;stroke-width:0.5;"/><text fill="#000000" font-family="sans-serif" font-size="11" lengthAdjust="spacing" textLength="71.7095" x="578.1653" y="507.127">Not detected</text><text fill="#000000" font-family="sans-serif" font-size="11" lengthAdjust="spacing" textLength="139.7236" x="504.3035" y="481.5176">Detect CopyComplete.txt</text><text fill="#000000" font-family="sans-serif" font-size="11" lengthAdjust="spacing" textLength="182.2036" x="483.0635" y="494.3223">in /mnt/Seqdata/Output/$RUN_ID</text><text fill="#000000" font-family="sans-serif" font-size="11" lengthAdjust="spacing" textLength="50.4292" x="420.6343" y="481.5176">Detected</text><rect fill="#F1F1F1" height="33.9688" rx="12.5" ry="12.5" style="stroke:#181818;stroke-width:0.5;" width="277.5488" x="435.3909" y="604.5957"/><text fill="#000000" font-family="sans-serif" font-size="12" lengthAdjust="spacing" textLength="257.5488" x="445.3909" y="625.7344">Create /staging/${RUN_ID}.ReadyToGo.txt</text><line style="stroke:#181818;stroke-width:1.5;" x1="183.2124" x2="722.9397" y1="658.5645" y2="658.5645"/><rect fill="#F1F1F1" height="33.9688" rx="12.5" ry="12.5" style="stroke:#181818;stroke-width:0.5;" width="67.4492" x="149.4878" y="777.584"/><text fill="#000000" font-family="sans-serif" font-size="12" lengthAdjust="spacing" textLength="47.4492" x="159.4878" y="798.7227">recheck</text><polygon fill="#F1F1F1" points="82.4292,716.7793,283.9956,716.7793,295.9956,728.7793,283.9956,740.7793,82.4292,740.7793,70.4292,728.7793,82.4292,716.7793" style="stroke:#181818;stroke-width:0.5;"/><text fill="#000000" font-family="sans-serif" font-size="11" lengthAdjust="spacing" textLength="71.7095" x="187.2124" y="750.9897">Not detected</text><text fill="#000000" font-family="sans-serif" font-size="11" lengthAdjust="spacing" textLength="201.5664" x="82.4292" y="732.5874">Detect /staging/${RUN_ID}.Done.txt</text><text fill="#000000" font-family="sans-serif" font-size="11" lengthAdjust="spacing" textLength="50.4292" x="20" y="726.1851">Detected</text><rect fill="#F1F1F1" height="47.9375" rx="12.5" ry="12.5" style="stroke:#181818;stroke-width:0.5;" width="271.2207" x="47.6021" y="870.5527"/><text fill="#000000" font-family="sans-serif" font-size="12" lengthAdjust="spacing" textLength="90.5801" x="136.0151" y="891.6914">Copy results to</text><text fill="#000000" font-family="sans-serif" font-size="12" lengthAdjust="spacing" textLength="251.2207" x="57.6021" y="905.6602">/mnt/vol_tso500ctdna_data/DRAGEN_OUT</text><ellipse cx="183.2124" cy="964.4902" fill="none" rx="11" ry="11" style="stroke:#222222;stroke-width:1.0;"/><ellipse cx="183.2124" cy="964.4902" fill="#222222" rx="6" ry="6" style="stroke:#222222;stroke-width:1.0;"/><line style="stroke:#000000;stroke-width:1.5;" x1="15" x2="15" y1="12.7451" y2="1033.7051"/><rect fill="#F1F1F1" height="33.9688" rx="12.5" ry="12.5" style="stroke:#181818;stroke-width:0.5;" width="67.4492" x="1008.0408" y="739.3691"/><text fill="#000000" font-family="sans-serif" font-size="12" lengthAdjust="spacing" textLength="47.4492" x="1018.0408" y="760.5078">recheck</text><polygon fill="#F1F1F1" points="923.7786,678.5645,1159.7522,678.5645,1171.7522,690.5645,1159.7522,702.5645,923.7786,702.5645,911.7786,690.5645,923.7786,678.5645" style="stroke:#181818;stroke-width:0.5;"/><text fill="#000000" font-family="sans-serif" font-size="11" lengthAdjust="spacing" textLength="71.7095" x="1045.7654" y="712.7749">Not detected</text><text fill="#000000" font-family="sans-serif" font-size="11" lengthAdjust="spacing" textLength="235.9736" x="923.7786" y="694.3726">Detect /staging/${RUN_ID}.ReadyToGo.txt</text><text fill="#000000" font-family="sans-serif" font-size="11" lengthAdjust="spacing" textLength="50.4292" x="861.3494" y="687.9702">Detected</text><path d="M732.9397,832.3379 L732.9397,887.7363 A0,0 0 0 0 732.9397,887.7363 L966.0593,887.7363 A0,0 0 0 0 966.0593,887.7363 L966.0593,864.0371 L986.0593,860.0371 L966.0593,856.0371 L966.0593,842.3379 L956.0593,832.3379 L732.9397,832.3379 A0,0 0 0 0 732.9397,832.3379 " fill="#FEFFDD" style="stroke:#181818;stroke-width:0.5;"/><path d="M956.0593,832.3379 L956.0593,842.3379 L966.0593,842.3379 L956.0593,832.3379 " fill="#FEFFDD" style="stroke:#181818;stroke-width:0.5;"/><text fill="#000000" font-family="sans-serif" font-size="13" lengthAdjust="spacing" textLength="202.3506" x="743.8242" y="849.4048">run_bcl_conversion ${RUN_ID}</text><text fill="#000000" font-family="sans-serif" font-size="13" lengthAdjust="spacing" textLength="212.1196" x="738.9397" y="864.5376">prepare_fastq_folder ${RUN_ID}</text><text fill="#000000" font-family="sans-serif" font-size="13" lengthAdjust="spacing" textLength="151.9375" x="769.0308" y="879.6704">run_dragen ${RUN_ID}</text><rect fill="#F1F1F1" height="33.9688" rx="12.5" ry="12.5" style="stroke:#181818;stroke-width:0.5;" width="111.4121" x="986.0593" y="843.0527"/><text fill="#000000" font-family="sans-serif" font-size="12" lengthAdjust="spacing" textLength="91.4121" x="996.0593" y="864.1914">Run process.sh</text><rect fill="#F1F1F1" height="33.9688" rx="12.5" ry="12.5" style="stroke:#181818;stroke-width:0.5;" width="313.373" x="885.0789" y="922.7363"/><text fill="#000000" font-family="sans-serif" font-size="12" lengthAdjust="spacing" textLength="293.373" x="895.0789" y="943.875">Generate results &amp; /staging/${RUN_ID}.Done.txt</text><ellipse cx="1041.7654" cy="1002.7051" fill="none" rx="11" ry="11" style="stroke:#222222;stroke-width:1.0;"/><ellipse cx="1041.7654" cy="1002.7051" fill="#222222" rx="6" ry="6" style="stroke:#222222;stroke-width:1.0;"/><line style="stroke:#000000;stroke-width:1.5;" x1="727.9397" x2="727.9397" y1="12.7451" y2="1033.7051"/><rect fill="#F1F1F1" height="33.9688" rx="12.5" ry="12.5" style="stroke:#181818;stroke-width:0.5;" width="67.4492" x="1337.24" y="785.5684"/><text fill="#000000" font-family="sans-serif" font-size="12" lengthAdjust="spacing" textLength="47.4492" x="1347.24" y="806.707">recheck</text><polygon fill="#F1F1F1" points="1270.1814,724.7637,1471.7478,724.7637,1483.7478,736.7637,1471.7478,748.7637,1270.1814,748.7637,1258.1814,736.7637,1270.1814,724.7637" style="stroke:#181818;stroke-width:0.5;"/><text fill="#000000" font-family="sans-serif" font-size="11" lengthAdjust="spacing" textLength="71.7095" x="1374.9646" y="758.9741">Not detected</text><text fill="#000000" font-family="sans-serif" font-size="11" lengthAdjust="spacing" textLength="201.5664" x="1270.1814" y="740.5718">Detect /staging/${RUN_ID}.Done.txt</text><text fill="#000000" font-family="sans-serif" font-size="11" lengthAdjust="spacing" textLength="50.4292" x="1207.7522" y="734.1694">Detected</text><rect fill="#F1F1F1" height="33.9688" rx="12.5" ry="12.5" style="stroke:#181818;stroke-width:0.5;" width="178.4316" x="1281.7488" y="878.5371"/><text fill="#000000" font-family="sans-serif" font-size="12" lengthAdjust="spacing" textLength="158.4316" x="1291.7488" y="899.6758">Import results to Omnidna</text><ellipse cx="1370.9646" cy="957.5059" fill="none" rx="10" ry="10" style="stroke:#222222;stroke-width:1.5;"/><line style="stroke:#222222;stroke-width:2.5;" x1="1364.7774" x2="1377.1518" y1="951.3187" y2="963.693"/><line style="stroke:#222222;stroke-width:2.5;" x1="1377.1518" x2="1364.7774" y1="951.3187" y2="963.693"/><line style="stroke:#000000;stroke-width:1.5;" x1="1202.7522" x2="1202.7522" y1="12.7451" y2="1033.7051"/><line style="stroke:#000000;stroke-width:1.5;" x1="1514.7478" x2="1514.7478" y1="12.7451" y2="1033.7051"/><line style="stroke:#181818;stroke-width:1.0;" x1="574.1653" x2="574.1653" y1="102.6982" y2="134.4087"/><polygon fill="#181818" points="570.1653,124.4087,574.1653,134.4087,578.1653,124.4087,574.1653,128.4087" style="stroke:#181818;stroke-width:1.0;"/><line style="stroke:#181818;stroke-width:1.0;" x1="574.1653" x2="574.1653" y1="168.3774" y2="178.3774"/><line style="stroke:#181818;stroke-width:1.0;" x1="574.1653" x2="693.0081" y1="178.3774" y2="178.3774"/><polygon fill="#181818" points="689.0081,142.9907,693.0081,132.9907,697.0081,142.9907,693.0081,138.9907" style="stroke:#181818;stroke-width:1.0;"/><line style="stroke:#181818;stroke-width:1.0;" x1="693.0081" x2="693.0081" y1="90.6982" y2="178.3774"/><line style="stroke:#181818;stroke-width:1.0;" x1="693.0081" x2="681.0081" y1="90.6982" y2="90.6982"/><polygon fill="#181818" points="691.0081,86.6982,681.0081,90.6982,691.0081,94.6982,687.0081,90.6982" style="stroke:#181818;stroke-width:1.0;"/><line style="stroke:#181818;stroke-width:1.0;" x1="467.3225" x2="455.3225" y1="90.6982" y2="90.6982"/><polygon fill="#181818" points="451.3225,128.9907,455.3225,138.9907,459.3225,128.9907,455.3225,132.9907" style="stroke:#181818;stroke-width:1.0;"/><line style="stroke:#181818;stroke-width:1.0;" x1="455.3225" x2="455.3225" y1="90.6982" y2="190.3774"/><line style="stroke:#181818;stroke-width:1.0;" x1="455.3225" x2="574.1653" y1="190.3774" y2="190.3774"/><line style="stroke:#181818;stroke-width:1.0;" x1="574.1653" x2="574.1653" y1="190.3774" y2="210.3774"/><polygon fill="#181818" points="570.1653,200.3774,574.1653,210.3774,578.1653,200.3774,574.1653,204.3774" style="stroke:#181818;stroke-width:1.0;"/><line style="stroke:#181818;stroke-width:1.0;" x1="574.1653" x2="574.1653" y1="58.6982" y2="78.6982"/><polygon fill="#181818" points="570.1653,68.6982,574.1653,78.6982,578.1653,68.6982,574.1653,72.6982" style="stroke:#181818;stroke-width:1.0;"/><line style="stroke:#181818;stroke-width:1.0;" x1="574.1653" x2="574.1653" y1="244.3462" y2="267.4946"/><polygon fill="#181818" points="570.1653,257.4946,574.1653,267.4946,578.1653,257.4946,574.1653,261.4946" style="stroke:#181818;stroke-width:1.0;"/><line style="stroke:#181818;stroke-width:1.0;" x1="574.1653" x2="574.1653" y1="315.4321" y2="335.4321"/><polygon fill="#181818" points="570.1653,325.4321,574.1653,335.4321,578.1653,325.4321,574.1653,329.4321" style="stroke:#181818;stroke-width:1.0;"/><line style="stroke:#181818;stroke-width:1.0;" x1="574.1653" x2="574.1653" y1="383.3696" y2="403.3696"/><polygon fill="#181818" points="570.1653,393.3696,574.1653,403.3696,578.1653,393.3696,574.1653,397.3696" style="stroke:#181818;stroke-width:1.0;"/><line style="stroke:#181818;stroke-width:1.0;" x1="574.1653" x2="574.1653" y1="496.9165" y2="528.627"/><polygon fill="#181818" points="570.1653,518.627,574.1653,528.627,578.1653,518.627,574.1653,522.627" style="stroke:#181818;stroke-width:1.0;"/><line style="stroke:#181818;stroke-width:1.0;" x1="574.1653" x2="574.1653" y1="562.5957" y2="572.5957"/><line style="stroke:#181818;stroke-width:1.0;" x1="574.1653" x2="689.2671" y1="572.5957" y2="572.5957"/><polygon fill="#181818" points="685.2671,536.8066,689.2671,526.8066,693.2671,536.8066,689.2671,532.8066" style="stroke:#181818;stroke-width:1.0;"/><line style="stroke:#181818;stroke-width:1.0;" x1="689.2671" x2="689.2671" y1="484.1118" y2="572.5957"/><line style="stroke:#181818;stroke-width:1.0;" x1="689.2671" x2="677.2671" y1="484.1118" y2="484.1118"/><polygon fill="#181818" points="687.2671,480.1118,677.2671,484.1118,687.2671,488.1118,683.2671,484.1118" style="stroke:#181818;stroke-width:1.0;"/><line style="stroke:#181818;stroke-width:1.0;" x1="471.0635" x2="459.0635" y1="484.1118" y2="484.1118"/><polygon fill="#181818" points="455.0635,522.8066,459.0635,532.8066,463.0635,522.8066,459.0635,526.8066" style="stroke:#181818;stroke-width:1.0;"/><line style="stroke:#181818;stroke-width:1.0;" x1="459.0635" x2="459.0635" y1="484.1118" y2="584.5957"/><line style="stroke:#181818;stroke-width:1.0;" x1="459.0635" x2="574.1653" y1="584.5957" y2="584.5957"/><line style="stroke:#181818;stroke-width:1.0;" x1="574.1653" x2="574.1653" y1="584.5957" y2="604.5957"/><polygon fill="#181818" points="570.1653,594.5957,574.1653,604.5957,578.1653,594.5957,574.1653,598.5957" style="stroke:#181818;stroke-width:1.0;"/><line style="stroke:#181818;stroke-width:1.0;" x1="574.1653" x2="574.1653" y1="451.3071" y2="471.3071"/><polygon fill="#181818" points="570.1653,461.3071,574.1653,471.3071,578.1653,461.3071,574.1653,465.3071" style="stroke:#181818;stroke-width:1.0;"/><line style="stroke:#181818;stroke-width:1.0;" x1="183.2124" x2="183.2124" y1="740.7793" y2="777.584"/><polygon fill="#181818" points="179.2124,767.584,183.2124,777.584,187.2124,767.584,183.2124,771.584" style="stroke:#181818;stroke-width:1.0;"/><line style="stroke:#181818;stroke-width:1.0;" x1="183.2124" x2="183.2124" y1="811.5527" y2="823.5527"/><line style="stroke:#181818;stroke-width:1.0;" x1="183.2124" x2="307.9956" y1="823.5527" y2="823.5527"/><polygon fill="#181818" points="303.9956,786.166,307.9956,776.166,311.9956,786.166,307.9956,782.166" style="stroke:#181818;stroke-width:1.0;"/><line style="stroke:#181818;stroke-width:1.0;" x1="307.9956" x2="307.9956" y1="728.7793" y2="823.5527"/><line style="stroke:#181818;stroke-width:1.0;" x1="307.9956" x2="295.9956" y1="728.7793" y2="728.7793"/><polygon fill="#181818" points="305.9956,724.7793,295.9956,728.7793,305.9956,732.7793,301.9956,728.7793" style="stroke:#181818;stroke-width:1.0;"/><line style="stroke:#181818;stroke-width:1.0;" x1="70.4292" x2="58.4292" y1="728.7793" y2="728.7793"/><polygon fill="#181818" points="54.4292,772.166,58.4292,782.166,62.4292,772.166,58.4292,776.166" style="stroke:#181818;stroke-width:1.0;"/><line style="stroke:#181818;stroke-width:1.0;" x1="58.4292" x2="58.4292" y1="728.7793" y2="835.5527"/><line style="stroke:#181818;stroke-width:1.0;" x1="58.4292" x2="183.2124" y1="835.5527" y2="835.5527"/><line style="stroke:#181818;stroke-width:1.0;" x1="183.2124" x2="183.2124" y1="835.5527" y2="870.5527"/><polygon fill="#181818" points="179.2124,860.5527,183.2124,870.5527,187.2124,860.5527,183.2124,864.5527" style="stroke:#181818;stroke-width:1.0;"/><line style="stroke:#181818;stroke-width:1.0;" x1="183.2124" x2="183.2124" y1="918.4902" y2="953.4902"/><polygon fill="#181818" points="179.2124,943.4902,183.2124,953.4902,187.2124,943.4902,183.2124,947.4902" style="stroke:#181818;stroke-width:1.0;"/><line style="stroke:#181818;stroke-width:1.0;" x1="183.2124" x2="183.2124" y1="660.0645" y2="716.7793"/><polygon fill="#181818" points="179.2124,706.7793,183.2124,716.7793,187.2124,706.7793,183.2124,710.7793" style="stroke:#181818;stroke-width:1.0;"/><line style="stroke:#181818;stroke-width:1.0;" x1="574.1653" x2="574.1653" y1="638.5645" y2="658.5645"/><polygon fill="#181818" points="570.1653,648.5645,574.1653,658.5645,578.1653,648.5645,574.1653,652.5645" style="stroke:#181818;stroke-width:1.0;"/><line style="stroke:#181818;stroke-width:1.0;" x1="1041.7654" x2="1041.7654" y1="702.5645" y2="739.3691"/><polygon fill="#181818" points="1037.7654,729.3691,1041.7654,739.3691,1045.7654,729.3691,1041.7654,733.3691" style="stroke:#181818;stroke-width:1.0;"/><line style="stroke:#181818;stroke-width:1.0;" x1="1041.7654" x2="1041.7654" y1="773.3379" y2="785.3379"/><line style="stroke:#181818;stroke-width:1.0;" x1="1041.7654" x2="1183.7522" y1="785.3379" y2="785.3379"/><polygon fill="#181818" points="1179.7522,747.9512,1183.7522,737.9512,1187.7522,747.9512,1183.7522,743.9512" style="stroke:#181818;stroke-width:1.0;"/><line style="stroke:#181818;stroke-width:1.0;" x1="1183.7522" x2="1183.7522" y1="690.5645" y2="785.3379"/><line style="stroke:#181818;stroke-width:1.0;" x1="1183.7522" x2="1171.7522" y1="690.5645" y2="690.5645"/><polygon fill="#181818" points="1181.7522,686.5645,1171.7522,690.5645,1181.7522,694.5645,1177.7522,690.5645" style="stroke:#181818;stroke-width:1.0;"/><line style="stroke:#181818;stroke-width:1.0;" x1="911.7786" x2="899.7786" y1="690.5645" y2="690.5645"/><polygon fill="#181818" points="895.7786,733.9512,899.7786,743.9512,903.7786,733.9512,899.7786,737.9512" style="stroke:#181818;stroke-width:1.0;"/><line style="stroke:#181818;stroke-width:1.0;" x1="899.7786" x2="899.7786" y1="690.5645" y2="797.3379"/><line style="stroke:#181818;stroke-width:1.0;" x1="899.7786" x2="1041.7654" y1="797.3379" y2="797.3379"/><line style="stroke:#181818;stroke-width:1.0;" x1="1041.7654" x2="1041.7654" y1="797.3379" y2="843.0527"/><polygon fill="#181818" points="1037.7654,833.0527,1041.7654,843.0527,1045.7654,833.0527,1041.7654,837.0527" style="stroke:#181818;stroke-width:1.0;"/><line style="stroke:#181818;stroke-width:1.0;" x1="1041.7654" x2="1041.7654" y1="877.0215" y2="922.7363"/><polygon fill="#181818" points="1037.7654,912.7363,1041.7654,922.7363,1045.7654,912.7363,1041.7654,916.7363" style="stroke:#181818;stroke-width:1.0;"/><line style="stroke:#181818;stroke-width:1.0;" x1="1041.7654" x2="1041.7654" y1="956.7051" y2="991.7051"/><polygon fill="#181818" points="1037.7654,981.7051,1041.7654,991.7051,1045.7654,981.7051,1041.7654,985.7051" style="stroke:#181818;stroke-width:1.0;"/><line style="stroke:#181818;stroke-width:1.0;" x1="1370.9646" x2="1370.9646" y1="748.7637" y2="785.5684"/><polygon fill="#181818" points="1366.9646,775.5684,1370.9646,785.5684,1374.9646,775.5684,1370.9646,779.5684" style="stroke:#181818;stroke-width:1.0;"/><line style="stroke:#181818;stroke-width:1.0;" x1="1370.9646" x2="1370.9646" y1="819.5371" y2="831.5371"/><line style="stroke:#181818;stroke-width:1.0;" x1="1370.9646" x2="1495.7478" y1="831.5371" y2="831.5371"/><polygon fill="#181818" points="1491.7478,794.1504,1495.7478,784.1504,1499.7478,794.1504,1495.7478,790.1504" style="stroke:#181818;stroke-width:1.0;"/><line style="stroke:#181818;stroke-width:1.0;" x1="1495.7478" x2="1495.7478" y1="736.7637" y2="831.5371"/><line style="stroke:#181818;stroke-width:1.0;" x1="1495.7478" x2="1483.7478" y1="736.7637" y2="736.7637"/><polygon fill="#181818" points="1493.7478,732.7637,1483.7478,736.7637,1493.7478,740.7637,1489.7478,736.7637" style="stroke:#181818;stroke-width:1.0;"/><line style="stroke:#181818;stroke-width:1.0;" x1="1258.1814" x2="1246.1814" y1="736.7637" y2="736.7637"/><polygon fill="#181818" points="1242.1814,780.1504,1246.1814,790.1504,1250.1814,780.1504,1246.1814,784.1504" style="stroke:#181818;stroke-width:1.0;"/><line style="stroke:#181818;stroke-width:1.0;" x1="1246.1814" x2="1246.1814" y1="736.7637" y2="843.5371"/><line style="stroke:#181818;stroke-width:1.0;" x1="1246.1814" x2="1370.9646" y1="843.5371" y2="843.5371"/><line style="stroke:#181818;stroke-width:1.0;" x1="1370.9646" x2="1370.9646" y1="843.5371" y2="878.5371"/><polygon fill="#181818" points="1366.9646,868.5371,1370.9646,878.5371,1374.9646,868.5371,1370.9646,872.5371" style="stroke:#181818;stroke-width:1.0;"/><line style="stroke:#181818;stroke-width:1.0;" x1="1370.9646" x2="1370.9646" y1="912.5059" y2="947.5059"/><polygon fill="#181818" points="1366.9646,937.5059,1370.9646,947.5059,1374.9646,937.5059,1370.9646,941.5059" style="stroke:#181818;stroke-width:1.0;"/><line style="stroke:#181818;stroke-width:1.0;" x1="655.6484" x2="655.6484" y1="660.0645" y2="663.5645"/><line style="stroke:#181818;stroke-width:1.0;" x1="655.6484" x2="1041.7654" y1="663.5645" y2="663.5645"/><line style="stroke:#181818;stroke-width:1.0;" x1="1041.7654" x2="1041.7654" y1="663.5645" y2="678.5645"/><polygon fill="#181818" points="1037.7654,668.5645,1041.7654,678.5645,1045.7654,668.5645,1041.7654,672.5645" style="stroke:#181818;stroke-width:1.0;"/><line style="stroke:#181818;stroke-width:1.0;" x1="722.9397" x2="722.9397" y1="660.0645" y2="663.5645"/><line style="stroke:#181818;stroke-width:1.0;" x1="722.9397" x2="1370.9646" y1="663.5645" y2="663.5645"/><line style="stroke:#181818;stroke-width:1.0;" x1="1370.9646" x2="1370.9646" y1="663.5645" y2="724.7637"/><polygon fill="#181818" points="1366.9646,714.7637,1370.9646,724.7637,1374.9646,714.7637,1370.9646,718.7637" style="stroke:#181818;stroke-width:1.0;"/><text fill="#000000" font-family="sans-serif" font-size="18" lengthAdjust="spacing" textLength="310.7285" x="216.1056" y="29.4531">actg-dragen-automation container</text><text fill="#000000" font-family="sans-serif" font-size="18" lengthAdjust="spacing" textLength="127.2393" x="901.7263" y="29.4531">dragen-server</text><text fill="#000000" font-family="sans-serif" font-size="18" lengthAdjust="spacing" textLength="189.8525" x="1263.8237" y="29.4531">Omnidna_integration</text><!--SRC=[fLJ1Rk8m4BtdAonKhU10qijUu5J12lK24j0RakLrXc2Hs6OyOK7B_llQJcYXtMvLceEbo6_6xyrxjjigRGMAYkMm5dL9IpZGGwaANO4c9lq2c9o4fAAVeoX0zqLDfXAaZ6RIQ19A0vuIHm8f-RLH9R3k60WaiRlvqvG_ZbFfzgphH6LBSE6drsFAiUxKa3yr827l9Sn_0mIv0RaT9g3pgru1CP08We0Xx6g5aBFShv8C7faZh2NL2CD46uBOhDhwVTQth9DvSeNIHNRtks7q9riBHxlEnpYXHNbqodK28nPx3qR67j_NniYiD7lRQfWCvdKSsHwGU5l2VKdgDYiz0J_6e6uHDnOR04eZoz2rBLwhGrl8NGIyMtdctHHVsnBuZqp04gHqe9LMdd2bALl0BXSaibbDjgQirNYZMwF6hRUJIESWykFIJ4muVPWuMwhNqVb7rTZeIFTMEi4r1ESpxhn7RAMZvBqfEJdp_VvUKgu5Z_h7yuV9ZocVFIqzEp8sERNPTu3xcFP0cOd2X_zZubToRsGVtBTe93ZdJRz8ETQQ_vGbRtBbmgryFZa2B8A_uC1ZblZQb3dWAqZeqGYys7Z9-tF0pjFxzZzxpXERLLg5WIh_WXGOtujFpksBXZzMrY1TMjvIYlYeBzBv2m00]--></g></svg>