<svg xmlns="http://www.w3.org/2000/svg" xmlns:xlink="http://www.w3.org/1999/xlink" contentStyleType="text/css" height="913px" preserveAspectRatio="none" style="width:1312px;height:913px;background:#FFFFFF;" version="1.1" viewBox="0 0 1312 913" width="1312px" zoomAndPan="magnify"><title>OmniDNA Frontend Analysis Detail</title><defs/><g><text fill="#000000" font-family="sans-serif" font-size="14" font-weight="bold" lengthAdjust="spacing" textLength="274.7705" x="517.2114" y="32.9951">OmniDNA Frontend Analysis Detail</text><ellipse cx="631.4688" cy="57.2969" fill="#222222" rx="10" ry="10" style="stroke:#222222;stroke-width:1.0;"/><rect fill="#F1F1F1" height="33.9688" rx="12.5" ry="12.5" style="stroke:#181818;stroke-width:0.5;" width="176.2285" x="543.3545" y="87.2969"/><text fill="#000000" font-family="sans-serif" font-size="12" lengthAdjust="spacing" textLength="156.2285" x="553.3545" y="108.4355">Go to analysis detail page</text><rect fill="#F1F1F1" height="33.9688" style="stroke:#181818;stroke-width:0.5;" width="48.125" x="607.4063" y="141.2656"/><line style="stroke:#181818;stroke-width:0.5;" x1="612.4063" x2="612.4063" y1="141.2656" y2="175.2344"/><line style="stroke:#181818;stroke-width:0.5;" x1="650.5313" x2="650.5313" y1="141.2656" y2="175.2344"/><text fill="#000000" font-family="sans-serif" font-size="12" lengthAdjust="spacing" textLength="28.125" x="617.4063" y="162.4043">Auth</text><polygon fill="#F1F1F1" points="608.4187,195.2344,654.5188,195.2344,666.5188,207.2344,654.5188,219.2344,608.4187,219.2344,596.4187,207.2344,608.4187,195.2344" style="stroke:#181818;stroke-width:0.5;"/><text fill="#000000" font-family="sans-serif" font-size="11" lengthAdjust="spacing" textLength="14.9585" x="635.4688" y="229.4448">No</text><text fill="#000000" font-family="sans-serif" font-size="11" lengthAdjust="spacing" textLength="46.1001" x="608.4187" y="211.0425">Redirect</text><text fill="#000000" font-family="sans-serif" font-size="11" lengthAdjust="spacing" textLength="19.2178" x="666.5188" y="204.6401">Yes</text><ellipse cx="707.7366" cy="207.2344" fill="none" rx="11" ry="11" style="stroke:#222222;stroke-width:1.0;"/><ellipse cx="707.7366" cy="207.2344" fill="#222222" rx="6" ry="6" style="stroke:#222222;stroke-width:1.0;"/><rect fill="#F1F1F1" height="33.9688" style="stroke:#181818;stroke-width:0.5;" width="131.3281" x="565.8047" y="250.9448"/><line style="stroke:#181818;stroke-width:0.5;" x1="570.8047" x2="570.8047" y1="250.9448" y2="284.9136"/><line style="stroke:#181818;stroke-width:0.5;" x1="692.1328" x2="692.1328" y1="250.9448" y2="284.9136"/><text fill="#000000" font-family="sans-serif" font-size="12" lengthAdjust="spacing" textLength="111.3281" x="575.8047" y="272.0835">Get analysis detail</text><rect fill="#F1F1F1" height="33.9688" rx="12.5" ry="12.5" style="stroke:#181818;stroke-width:0.5;" width="172.502" x="545.2178" y="304.9136"/><text fill="#000000" font-family="sans-serif" font-size="12" lengthAdjust="spacing" textLength="152.502" x="555.2178" y="326.0522">Select the newest submit</text><rect fill="#F1F1F1" height="33.9688" style="stroke:#181818;stroke-width:0.5;" width="123.9453" x="569.4961" y="407.2847"/><line style="stroke:#181818;stroke-width:0.5;" x1="574.4961" x2="574.4961" y1="407.2847" y2="441.2534"/><line style="stroke:#181818;stroke-width:0.5;" x1="688.4414" x2="688.4414" y1="407.2847" y2="441.2534"/><text fill="#000000" font-family="sans-serif" font-size="12" lengthAdjust="spacing" textLength="103.9453" x="579.4961" y="428.4233">Get submit detail</text><polygon fill="#F1F1F1" points="579.4443,358.8823,683.4932,358.8823,695.4932,370.8823,683.4932,382.8823,579.4443,382.8823,567.4443,370.8823,579.4443,358.8823" style="stroke:#181818;stroke-width:0.5;"/><text fill="#000000" font-family="sans-serif" font-size="11" lengthAdjust="spacing" textLength="19.2178" x="635.4688" y="393.0928">Yes</text><text fill="#000000" font-family="sans-serif" font-size="11" lengthAdjust="spacing" textLength="104.0488" x="579.4443" y="374.6904">Submit is finished?</text><text fill="#000000" font-family="sans-serif" font-size="11" lengthAdjust="spacing" textLength="14.9585" x="695.4932" y="368.2881">No</text><polygon fill="#F1F1F1" points="631.4688,461.2534,643.4688,473.2534,631.4688,485.2534,619.4688,473.2534,631.4688,461.2534" style="stroke:#181818;stroke-width:0.5;"/><line style="stroke:#181818;stroke-width:1.5;" x1="80.3438" x2="1212.0049" y1="549.2534" y2="549.2534"/><rect fill="#F1F1F1" height="33.9688" rx="12.5" ry="12.5" style="stroke:#181818;stroke-width:0.5;" width="138.6875" x="11" y="658.1245"/><text fill="#000000" font-family="sans-serif" font-size="12" lengthAdjust="spacing" textLength="118.6875" x="21" y="679.2632">Go to analysis page</text><ellipse cx="80.3438" cy="738.0933" fill="none" rx="11" ry="11" style="stroke:#222222;stroke-width:1.0;"/><ellipse cx="80.3438" cy="738.0933" fill="#222222" rx="6" ry="6" style="stroke:#222222;stroke-width:1.0;"/><rect fill="#F1F1F1" height="33.9688" rx="12.5" ry="12.5" style="stroke:#181818;stroke-width:0.5;" width="102.0371" x="172.6934" y="569.2534"/><text fill="#000000" font-family="sans-serif" font-size="12" lengthAdjust="spacing" textLength="82.0371" x="182.6934" y="590.3921">Select submit</text><polygon fill="#F1F1F1" points="194.1309,638.2222,263.293,638.2222,253.293,672.1909,184.1309,672.1909" style="stroke:#181818;stroke-width:0.5;"/><text fill="#000000" font-family="sans-serif" font-size="12" lengthAdjust="spacing" textLength="59.1621" x="194.1309" y="659.3608">Submit ID</text><rect fill="#F1F1F1" height="33.9688" style="stroke:#181818;stroke-width:0.5;" width="123.9453" x="161.7393" y="755.5933"/><line style="stroke:#181818;stroke-width:0.5;" x1="166.7393" x2="166.7393" y1="755.5933" y2="789.562"/><line style="stroke:#181818;stroke-width:0.5;" x1="280.6846" x2="280.6846" y1="755.5933" y2="789.562"/><text fill="#000000" font-family="sans-serif" font-size="12" lengthAdjust="spacing" textLength="103.9453" x="171.7393" y="776.7319">Get submit detail</text><polygon fill="#F1F1F1" points="171.6875,707.1909,275.7363,707.1909,287.7363,719.1909,275.7363,731.1909,171.6875,731.1909,159.6875,719.1909,171.6875,707.1909" style="stroke:#181818;stroke-width:0.5;"/><text fill="#000000" font-family="sans-serif" font-size="11" lengthAdjust="spacing" textLength="19.2178" x="227.7119" y="741.4014">Yes</text><text fill="#000000" font-family="sans-serif" font-size="11" lengthAdjust="spacing" textLength="104.0488" x="171.6875" y="722.999">Submit is finished?</text><text fill="#000000" font-family="sans-serif" font-size="11" lengthAdjust="spacing" textLength="14.9585" x="287.7363" y="716.5967">No</text><polygon fill="#F1F1F1" points="223.7119,813.9644,235.7119,825.9644,223.7119,837.9644,211.7119,825.9644,223.7119,813.9644" style="stroke:#181818;stroke-width:0.5;"/><rect fill="#F1F1F1" height="33.9688" rx="12.5" ry="12.5" style="stroke:#181818;stroke-width:0.5;" width="81.7168" x="354.0811" y="596.1558"/><text fill="#000000" font-family="sans-serif" font-size="12" lengthAdjust="spacing" textLength="61.7168" x="364.0811" y="617.2944">Terminate</text><polygon fill="#F1F1F1" points="365.543,665.1245,434.3359,665.1245,424.3359,699.0933,355.543,699.0933" style="stroke:#181818;stroke-width:0.5;"/><text fill="#000000" font-family="sans-serif" font-size="12" lengthAdjust="spacing" textLength="58.793" x="365.543" y="686.2632">Comment</text><line style="stroke:#181818;stroke-width:1.5;" x1="340.0811" x2="435.2842" y1="734.0933" y2="734.0933"/><rect fill="#F1F1F1" height="33.9688" rx="12.5" ry="12.5" style="stroke:#181818;stroke-width:0.5;" width="52.6895" x="313.7363" y="755.5933"/><text fill="#000000" font-family="sans-serif" font-size="12" lengthAdjust="spacing" textLength="32.6895" x="323.7363" y="776.7319">Close</text><rect fill="#F1F1F1" height="33.9688" style="stroke:#181818;stroke-width:0.5;" width="81.7168" x="394.4258" y="755.5933"/><line style="stroke:#181818;stroke-width:0.5;" x1="399.4258" x2="399.4258" y1="755.5933" y2="789.562"/><line style="stroke:#181818;stroke-width:0.5;" x1="471.1426" x2="471.1426" y1="755.5933" y2="789.562"/><text fill="#000000" font-family="sans-serif" font-size="12" lengthAdjust="spacing" textLength="61.7168" x="404.4258" y="776.7319">Terminate</text><line style="stroke:#181818;stroke-width:1.5;" x1="340.0811" x2="435.2842" y1="809.562" y2="809.562"/><rect fill="#F1F1F1" height="33.9688" rx="12.5" ry="12.5" style="stroke:#181818;stroke-width:0.5;" width="65.668" x="542.9082" y="570.1558"/><text fill="#000000" font-family="sans-serif" font-size="12" lengthAdjust="spacing" textLength="45.668" x="552.9082" y="591.2944">Reopen</text><rect fill="#555555" height="6" rx="2.5" ry="2.5" style="stroke:#555555;stroke-width:1.0;" width="181.1992" x="486.1426" y="639.1245"/><polygon fill="#F1F1F1" points="508.1426,665.1245,576.9355,665.1245,566.9355,699.0933,498.1426,699.0933" style="stroke:#181818;stroke-width:0.5;"/><text fill="#000000" font-family="sans-serif" font-size="12" lengthAdjust="spacing" textLength="58.793" x="508.1426" y="686.2632">Comment</text><polygon fill="#F1F1F1" points="614.9355,665.1245,653.3418,665.1245,643.3418,699.0933,604.9355,699.0933" style="stroke:#181818;stroke-width:0.5;"/><text fill="#000000" font-family="sans-serif" font-size="12" lengthAdjust="spacing" textLength="28.4063" x="614.9355" y="686.2632">Note</text><rect fill="#555555" height="6" rx="2.5" ry="2.5" style="stroke:#555555;stroke-width:1.0;" width="181.1992" x="486.1426" y="719.0933"/><line style="stroke:#181818;stroke-width:1.5;" x1="528.9082" x2="616.0869" y1="760.0933" y2="760.0933"/><rect fill="#F1F1F1" height="33.9688" rx="12.5" ry="12.5" style="stroke:#181818;stroke-width:0.5;" width="52.6895" x="502.5635" y="781.5933"/><text fill="#000000" font-family="sans-serif" font-size="12" lengthAdjust="spacing" textLength="32.6895" x="512.5635" y="802.7319">Close</text><rect fill="#F1F1F1" height="33.9688" style="stroke:#181818;stroke-width:0.5;" width="65.668" x="583.2529" y="781.5933"/><line style="stroke:#181818;stroke-width:0.5;" x1="588.2529" x2="588.2529" y1="781.5933" y2="815.562"/><line style="stroke:#181818;stroke-width:0.5;" x1="643.9209" x2="643.9209" y1="781.5933" y2="815.562"/><text fill="#000000" font-family="sans-serif" font-size="12" lengthAdjust="spacing" textLength="45.668" x="593.2529" y="802.7319">Reopen</text><line style="stroke:#181818;stroke-width:1.5;" x1="528.9082" x2="616.0869" y1="835.562" y2="835.562"/><rect fill="#F1F1F1" height="33.9688" rx="12.5" ry="12.5" style="stroke:#181818;stroke-width:0.5;" width="59.9727" x="789.9932" y="602.1401"/><text fill="#000000" font-family="sans-serif" font-size="12" lengthAdjust="spacing" textLength="39.9727" x="799.9932" y="623.2788">Modify</text><line style="stroke:#181818;stroke-width:1.5;" x1="735.6865" x2="860.3242" y1="671.1089" y2="671.1089"/><rect fill="#F1F1F1" height="33.9688" rx="12.5" ry="12.5" style="stroke:#181818;stroke-width:0.5;" width="52.6895" x="709.3418" y="721.1089"/><text fill="#000000" font-family="sans-serif" font-size="12" lengthAdjust="spacing" textLength="32.6895" x="719.3418" y="742.2476">Close</text><rect fill="#F1F1F1" height="33.9688" rx="12.5" ry="12.5" style="stroke:#181818;stroke-width:0.5;" width="176.5859" x="772.0313" y="692.6089"/><text fill="#000000" font-family="sans-serif" font-size="12" lengthAdjust="spacing" textLength="156.5859" x="782.0313" y="713.7476">Go to create alalysis page</text><ellipse cx="860.3242" cy="772.5776" fill="none" rx="11" ry="11" style="stroke:#222222;stroke-width:1.0;"/><ellipse cx="860.3242" cy="772.5776" fill="#222222" rx="6" ry="6" style="stroke:#222222;stroke-width:1.0;"/><line style="stroke:#181818;stroke-width:1.5;" x1="735.6865" x2="819.9795" y1="803.5776" y2="803.5776"/><rect fill="#F1F1F1" height="33.9688" rx="12.5" ry="12.5" style="stroke:#181818;stroke-width:0.5;" width="82.1504" x="1009.1416" y="570.1558"/><text fill="#000000" font-family="sans-serif" font-size="12" lengthAdjust="spacing" textLength="62.1504" x="1019.1416" y="591.2944">Reanalyze</text><rect fill="#555555" height="6" rx="2.5" ry="2.5" style="stroke:#555555;stroke-width:1.0;" width="183.1992" x="958.6172" y="639.1245"/><polygon fill="#F1F1F1" points="982.6172,665.1245,1051.4102,665.1245,1041.4102,699.0933,972.6172,699.0933" style="stroke:#181818;stroke-width:0.5;"/><text fill="#000000" font-family="sans-serif" font-size="12" lengthAdjust="spacing" textLength="58.793" x="982.6172" y="686.2632">Comment</text><polygon fill="#F1F1F1" points="1089.4102,665.1245,1127.8164,665.1245,1117.8164,699.0933,1079.4102,699.0933" style="stroke:#181818;stroke-width:0.5;"/><text fill="#000000" font-family="sans-serif" font-size="12" lengthAdjust="spacing" textLength="28.4063" x="1089.4102" y="686.2632">Note</text><rect fill="#555555" height="6" rx="2.5" ry="2.5" style="stroke:#555555;stroke-width:1.0;" width="183.1992" x="958.6172" y="719.0933"/><line style="stroke:#181818;stroke-width:1.5;" x1="995.1416" x2="1090.5615" y1="760.0933" y2="760.0933"/><rect fill="#F1F1F1" height="33.9688" rx="12.5" ry="12.5" style="stroke:#181818;stroke-width:0.5;" width="52.6895" x="968.7969" y="781.5933"/><text fill="#000000" font-family="sans-serif" font-size="12" lengthAdjust="spacing" textLength="32.6895" x="978.7969" y="802.7319">Close</text><rect fill="#F1F1F1" height="33.9688" style="stroke:#181818;stroke-width:0.5;" width="82.1504" x="1049.4863" y="781.5933"/><line style="stroke:#181818;stroke-width:0.5;" x1="1054.4863" x2="1054.4863" y1="781.5933" y2="815.562"/><line style="stroke:#181818;stroke-width:0.5;" x1="1126.6367" x2="1126.6367" y1="781.5933" y2="815.562"/><text fill="#000000" font-family="sans-serif" font-size="12" lengthAdjust="spacing" textLength="62.1504" x="1059.4863" y="802.7319">Reanalyze</text><line style="stroke:#181818;stroke-width:1.5;" x1="995.1416" x2="1090.5615" y1="835.562" y2="835.562"/><rect fill="#F1F1F1" height="33.9688" style="stroke:#181818;stroke-width:0.5;" width="120.377" x="1151.8164" y="686.6245"/><line style="stroke:#181818;stroke-width:0.5;" x1="1156.8164" x2="1156.8164" y1="686.6245" y2="720.5933"/><line style="stroke:#181818;stroke-width:0.5;" x1="1267.1934" x2="1267.1934" y1="686.6245" y2="720.5933"/><text fill="#000000" font-family="sans-serif" font-size="12" lengthAdjust="spacing" textLength="100.377" x="1161.8164" y="707.7632">Download report</text><line style="stroke:#181818;stroke-width:1.5;" x1="223.7119" x2="1212.0049" y1="857.9644" y2="857.9644"/><polygon fill="#F1F1F1" points="631.4688,505.2534,643.4688,517.2534,631.4688,529.2534,619.4688,517.2534,631.4688,505.2534" style="stroke:#181818;stroke-width:0.5;"/><polygon fill="#F1F1F1" points="631.4688,877.9644,631.4688,877.9644,643.4688,889.9644,631.4688,901.9644,631.4688,901.9644,619.4688,889.9644,631.4688,877.9644" style="stroke:#181818;stroke-width:0.5;"/><line style="stroke:#181818;stroke-width:1.0;" x1="631.4688" x2="631.4688" y1="67.2969" y2="87.2969"/><polygon fill="#181818" points="627.4688,77.2969,631.4688,87.2969,635.4688,77.2969,631.4688,81.2969" style="stroke:#181818;stroke-width:1.0;"/><line style="stroke:#181818;stroke-width:1.0;" x1="631.4688" x2="631.4688" y1="121.2656" y2="141.2656"/><polygon fill="#181818" points="627.4688,131.2656,631.4688,141.2656,635.4688,131.2656,631.4688,135.2656" style="stroke:#181818;stroke-width:1.0;"/><line style="stroke:#181818;stroke-width:1.0;" x1="631.4688" x2="631.4688" y1="219.2344" y2="250.9448"/><polygon fill="#181818" points="627.4688,240.9448,631.4688,250.9448,635.4688,240.9448,631.4688,244.9448" style="stroke:#181818;stroke-width:1.0;"/><line style="stroke:#181818;stroke-width:1.0;" x1="666.5188" x2="696.7366" y1="207.2344" y2="207.2344"/><polygon fill="#181818" points="686.7366,203.2344,696.7366,207.2344,686.7366,211.2344,690.7366,207.2344" style="stroke:#181818;stroke-width:1.0;"/><line style="stroke:#181818;stroke-width:1.0;" x1="631.4688" x2="631.4688" y1="175.2344" y2="195.2344"/><polygon fill="#181818" points="627.4688,185.2344,631.4688,195.2344,635.4688,185.2344,631.4688,189.2344" style="stroke:#181818;stroke-width:1.0;"/><line style="stroke:#181818;stroke-width:1.0;" x1="631.4688" x2="631.4688" y1="284.9136" y2="304.9136"/><polygon fill="#181818" points="627.4688,294.9136,631.4688,304.9136,635.4688,294.9136,631.4688,298.9136" style="stroke:#181818;stroke-width:1.0;"/><line style="stroke:#181818;stroke-width:1.0;" x1="631.4688" x2="631.4688" y1="382.8823" y2="407.2847"/><polygon fill="#181818" points="627.4688,397.2847,631.4688,407.2847,635.4688,397.2847,631.4688,401.2847" style="stroke:#181818;stroke-width:1.0;"/><line style="stroke:#181818;stroke-width:1.0;" x1="695.4932" x2="707.4932" y1="370.8823" y2="370.8823"/><polygon fill="#181818" points="703.4932,414.269,707.4932,424.269,711.4932,414.269,707.4932,418.269" style="stroke:#181818;stroke-width:1.0;"/><line style="stroke:#181818;stroke-width:1.0;" x1="707.4932" x2="707.4932" y1="370.8823" y2="473.2534"/><line style="stroke:#181818;stroke-width:1.0;" x1="707.4932" x2="643.4688" y1="473.2534" y2="473.2534"/><polygon fill="#181818" points="653.4688,469.2534,643.4688,473.2534,653.4688,477.2534,649.4688,473.2534" style="stroke:#181818;stroke-width:1.0;"/><line style="stroke:#181818;stroke-width:1.0;" x1="631.4688" x2="631.4688" y1="441.2534" y2="461.2534"/><polygon fill="#181818" points="627.4688,451.2534,631.4688,461.2534,635.4688,451.2534,631.4688,455.2534" style="stroke:#181818;stroke-width:1.0;"/><line style="stroke:#181818;stroke-width:1.0;" x1="631.4688" x2="631.4688" y1="338.8823" y2="358.8823"/><polygon fill="#181818" points="627.4688,348.8823,631.4688,358.8823,635.4688,348.8823,631.4688,352.8823" style="stroke:#181818;stroke-width:1.0;"/><line style="stroke:#181818;stroke-width:1.0;" x1="80.3438" x2="80.3438" y1="692.0933" y2="727.0933"/><polygon fill="#181818" points="76.3438,717.0933,80.3438,727.0933,84.3438,717.0933,80.3438,721.0933" style="stroke:#181818;stroke-width:1.0;"/><line style="stroke:#181818;stroke-width:1.0;" x1="223.7119" x2="223.7119" y1="603.2222" y2="638.2222"/><polygon fill="#181818" points="219.7119,628.2222,223.7119,638.2222,227.7119,628.2222,223.7119,632.2222" style="stroke:#181818;stroke-width:1.0;"/><line style="stroke:#181818;stroke-width:1.0;" x1="223.7119" x2="223.7119" y1="731.1909" y2="755.5933"/><polygon fill="#181818" points="219.7119,745.5933,223.7119,755.5933,227.7119,745.5933,223.7119,749.5933" style="stroke:#181818;stroke-width:1.0;"/><line style="stroke:#181818;stroke-width:1.0;" x1="287.7363" x2="299.7363" y1="719.1909" y2="719.1909"/><polygon fill="#181818" points="295.7363,762.5776,299.7363,772.5776,303.7363,762.5776,299.7363,766.5776" style="stroke:#181818;stroke-width:1.0;"/><line style="stroke:#181818;stroke-width:1.0;" x1="299.7363" x2="299.7363" y1="719.1909" y2="825.9644"/><line style="stroke:#181818;stroke-width:1.0;" x1="299.7363" x2="235.7119" y1="825.9644" y2="825.9644"/><polygon fill="#181818" points="245.7119,821.9644,235.7119,825.9644,245.7119,829.9644,241.7119,825.9644" style="stroke:#181818;stroke-width:1.0;"/><line style="stroke:#181818;stroke-width:1.0;" x1="223.7119" x2="223.7119" y1="789.562" y2="813.9644"/><polygon fill="#181818" points="219.7119,803.9644,223.7119,813.9644,227.7119,803.9644,223.7119,807.9644" style="stroke:#181818;stroke-width:1.0;"/><line style="stroke:#181818;stroke-width:1.0;" x1="223.7119" x2="223.7119" y1="672.1909" y2="707.1909"/><polygon fill="#181818" points="219.7119,697.1909,223.7119,707.1909,227.7119,697.1909,223.7119,701.1909" style="stroke:#181818;stroke-width:1.0;"/><line style="stroke:#181818;stroke-width:1.0;" x1="394.9395" x2="394.9395" y1="630.1245" y2="665.1245"/><polygon fill="#181818" points="390.9395,655.1245,394.9395,665.1245,398.9395,655.1245,394.9395,659.1245" style="stroke:#181818;stroke-width:1.0;"/><line style="stroke:#181818;stroke-width:1.0;" x1="340.0811" x2="340.0811" y1="735.5933" y2="755.5933"/><polygon fill="#181818" points="336.0811,745.5933,340.0811,755.5933,344.0811,745.5933,340.0811,749.5933" style="stroke:#181818;stroke-width:1.0;"/><line style="stroke:#181818;stroke-width:1.0;" x1="435.2842" x2="435.2842" y1="735.5933" y2="755.5933"/><polygon fill="#181818" points="431.2842,745.5933,435.2842,755.5933,439.2842,745.5933,435.2842,749.5933" style="stroke:#181818;stroke-width:1.0;"/><line style="stroke:#181818;stroke-width:1.0;" x1="340.0811" x2="340.0811" y1="789.562" y2="809.562"/><polygon fill="#181818" points="336.0811,799.562,340.0811,809.562,344.0811,799.562,340.0811,803.562" style="stroke:#181818;stroke-width:1.0;"/><line style="stroke:#181818;stroke-width:1.0;" x1="435.2842" x2="435.2842" y1="789.562" y2="809.562"/><polygon fill="#181818" points="431.2842,799.562,435.2842,809.562,439.2842,799.562,435.2842,803.562" style="stroke:#181818;stroke-width:1.0;"/><line style="stroke:#181818;stroke-width:1.0;" x1="394.9395" x2="394.9395" y1="699.0933" y2="734.0933"/><polygon fill="#181818" points="390.9395,724.0933,394.9395,734.0933,398.9395,724.0933,394.9395,728.0933" style="stroke:#181818;stroke-width:1.0;"/><line style="stroke:#181818;stroke-width:1.0;" x1="537.5391" x2="537.5391" y1="645.1245" y2="665.1245"/><polygon fill="#181818" points="533.5391,655.1245,537.5391,665.1245,541.5391,655.1245,537.5391,659.1245" style="stroke:#181818;stroke-width:1.0;"/><line style="stroke:#181818;stroke-width:1.0;" x1="629.1387" x2="629.1387" y1="645.1245" y2="665.1245"/><polygon fill="#181818" points="625.1387,655.1245,629.1387,665.1245,633.1387,655.1245,629.1387,659.1245" style="stroke:#181818;stroke-width:1.0;"/><line style="stroke:#181818;stroke-width:1.0;" x1="537.5391" x2="537.5391" y1="699.0933" y2="719.0933"/><polygon fill="#181818" points="533.5391,709.0933,537.5391,719.0933,541.5391,709.0933,537.5391,713.0933" style="stroke:#181818;stroke-width:1.0;"/><line style="stroke:#181818;stroke-width:1.0;" x1="629.1387" x2="629.1387" y1="699.0933" y2="719.0933"/><polygon fill="#181818" points="625.1387,709.0933,629.1387,719.0933,633.1387,709.0933,629.1387,713.0933" style="stroke:#181818;stroke-width:1.0;"/><line style="stroke:#181818;stroke-width:1.0;" x1="575.7422" x2="575.7422" y1="604.1245" y2="639.1245"/><polygon fill="#181818" points="571.7422,629.1245,575.7422,639.1245,579.7422,629.1245,575.7422,633.1245" style="stroke:#181818;stroke-width:1.0;"/><line style="stroke:#181818;stroke-width:1.0;" x1="528.9082" x2="528.9082" y1="761.5933" y2="781.5933"/><polygon fill="#181818" points="524.9082,771.5933,528.9082,781.5933,532.9082,771.5933,528.9082,775.5933" style="stroke:#181818;stroke-width:1.0;"/><line style="stroke:#181818;stroke-width:1.0;" x1="616.0869" x2="616.0869" y1="761.5933" y2="781.5933"/><polygon fill="#181818" points="612.0869,771.5933,616.0869,781.5933,620.0869,771.5933,616.0869,775.5933" style="stroke:#181818;stroke-width:1.0;"/><line style="stroke:#181818;stroke-width:1.0;" x1="528.9082" x2="528.9082" y1="815.562" y2="835.562"/><polygon fill="#181818" points="524.9082,825.562,528.9082,835.562,532.9082,825.562,528.9082,829.562" style="stroke:#181818;stroke-width:1.0;"/><line style="stroke:#181818;stroke-width:1.0;" x1="616.0869" x2="616.0869" y1="815.562" y2="835.562"/><polygon fill="#181818" points="612.0869,825.562,616.0869,835.562,620.0869,825.562,616.0869,829.562" style="stroke:#181818;stroke-width:1.0;"/><line style="stroke:#181818;stroke-width:1.0;" x1="575.7422" x2="575.7422" y1="725.0933" y2="760.0933"/><polygon fill="#181818" points="571.7422,750.0933,575.7422,760.0933,579.7422,750.0933,575.7422,754.0933" style="stroke:#181818;stroke-width:1.0;"/><line style="stroke:#181818;stroke-width:1.0;" x1="860.3242" x2="860.3242" y1="726.5776" y2="761.5776"/><polygon fill="#181818" points="856.3242,751.5776,860.3242,761.5776,864.3242,751.5776,860.3242,755.5776" style="stroke:#181818;stroke-width:1.0;"/><line style="stroke:#181818;stroke-width:1.0;" x1="735.6865" x2="735.6865" y1="672.6089" y2="721.1089"/><polygon fill="#181818" points="731.6865,711.1089,735.6865,721.1089,739.6865,711.1089,735.6865,715.1089" style="stroke:#181818;stroke-width:1.0;"/><line style="stroke:#181818;stroke-width:1.0;" x1="860.3242" x2="860.3242" y1="672.6089" y2="692.6089"/><polygon fill="#181818" points="856.3242,682.6089,860.3242,692.6089,864.3242,682.6089,860.3242,686.6089" style="stroke:#181818;stroke-width:1.0;"/><line style="stroke:#181818;stroke-width:1.0;" x1="735.6865" x2="735.6865" y1="755.0776" y2="803.5776"/><polygon fill="#181818" points="731.6865,793.5776,735.6865,803.5776,739.6865,793.5776,735.6865,797.5776" style="stroke:#181818;stroke-width:1.0;"/><line style="stroke:#181818;stroke-width:1.0;" x1="819.9795" x2="819.9795" y1="636.1089" y2="671.1089"/><polygon fill="#181818" points="815.9795,661.1089,819.9795,671.1089,823.9795,661.1089,819.9795,665.1089" style="stroke:#181818;stroke-width:1.0;"/><line style="stroke:#181818;stroke-width:1.0;" x1="1012.0137" x2="1012.0137" y1="645.1245" y2="665.1245"/><polygon fill="#181818" points="1008.0137,655.1245,1012.0137,665.1245,1016.0137,655.1245,1012.0137,659.1245" style="stroke:#181818;stroke-width:1.0;"/><line style="stroke:#181818;stroke-width:1.0;" x1="1103.6133" x2="1103.6133" y1="645.1245" y2="665.1245"/><polygon fill="#181818" points="1099.6133,655.1245,1103.6133,665.1245,1107.6133,655.1245,1103.6133,659.1245" style="stroke:#181818;stroke-width:1.0;"/><line style="stroke:#181818;stroke-width:1.0;" x1="1012.0137" x2="1012.0137" y1="699.0933" y2="719.0933"/><polygon fill="#181818" points="1008.0137,709.0933,1012.0137,719.0933,1016.0137,709.0933,1012.0137,713.0933" style="stroke:#181818;stroke-width:1.0;"/><line style="stroke:#181818;stroke-width:1.0;" x1="1103.6133" x2="1103.6133" y1="699.0933" y2="719.0933"/><polygon fill="#181818" points="1099.6133,709.0933,1103.6133,719.0933,1107.6133,709.0933,1103.6133,713.0933" style="stroke:#181818;stroke-width:1.0;"/><line style="stroke:#181818;stroke-width:1.0;" x1="1050.2168" x2="1050.2168" y1="604.1245" y2="639.1245"/><polygon fill="#181818" points="1046.2168,629.1245,1050.2168,639.1245,1054.2168,629.1245,1050.2168,633.1245" style="stroke:#181818;stroke-width:1.0;"/><line style="stroke:#181818;stroke-width:1.0;" x1="995.1416" x2="995.1416" y1="761.5933" y2="781.5933"/><polygon fill="#181818" points="991.1416,771.5933,995.1416,781.5933,999.1416,771.5933,995.1416,775.5933" style="stroke:#181818;stroke-width:1.0;"/><line style="stroke:#181818;stroke-width:1.0;" x1="1090.5615" x2="1090.5615" y1="761.5933" y2="781.5933"/><polygon fill="#181818" points="1086.5615,771.5933,1090.5615,781.5933,1094.5615,771.5933,1090.5615,775.5933" style="stroke:#181818;stroke-width:1.0;"/><line style="stroke:#181818;stroke-width:1.0;" x1="995.1416" x2="995.1416" y1="815.562" y2="835.562"/><polygon fill="#181818" points="991.1416,825.562,995.1416,835.562,999.1416,825.562,995.1416,829.562" style="stroke:#181818;stroke-width:1.0;"/><line style="stroke:#181818;stroke-width:1.0;" x1="1090.5615" x2="1090.5615" y1="815.562" y2="835.562"/><polygon fill="#181818" points="1086.5615,825.562,1090.5615,835.562,1094.5615,825.562,1090.5615,829.562" style="stroke:#181818;stroke-width:1.0;"/><line style="stroke:#181818;stroke-width:1.0;" x1="1050.2168" x2="1050.2168" y1="725.0933" y2="760.0933"/><polygon fill="#181818" points="1046.2168,750.0933,1050.2168,760.0933,1054.2168,750.0933,1050.2168,754.0933" style="stroke:#181818;stroke-width:1.0;"/><line style="stroke:#181818;stroke-width:1.0;" x1="80.3438" x2="80.3438" y1="550.7534" y2="658.1245"/><polygon fill="#181818" points="76.3438,648.1245,80.3438,658.1245,84.3438,648.1245,80.3438,652.1245" style="stroke:#181818;stroke-width:1.0;"/><line style="stroke:#181818;stroke-width:1.0;" x1="223.7119" x2="223.7119" y1="550.7534" y2="569.2534"/><polygon fill="#181818" points="219.7119,559.2534,223.7119,569.2534,227.7119,559.2534,223.7119,563.2534" style="stroke:#181818;stroke-width:1.0;"/><line style="stroke:#181818;stroke-width:1.0;" x1="394.9395" x2="394.9395" y1="550.7534" y2="596.1558"/><polygon fill="#181818" points="390.9395,586.1558,394.9395,596.1558,398.9395,586.1558,394.9395,590.1558" style="stroke:#181818;stroke-width:1.0;"/><line style="stroke:#181818;stroke-width:1.0;" x1="575.7422" x2="575.7422" y1="550.7534" y2="570.1558"/><polygon fill="#181818" points="571.7422,560.1558,575.7422,570.1558,579.7422,560.1558,575.7422,564.1558" style="stroke:#181818;stroke-width:1.0;"/><line style="stroke:#181818;stroke-width:1.0;" x1="819.9795" x2="819.9795" y1="550.7534" y2="602.1401"/><polygon fill="#181818" points="815.9795,592.1401,819.9795,602.1401,823.9795,592.1401,819.9795,596.1401" style="stroke:#181818;stroke-width:1.0;"/><line style="stroke:#181818;stroke-width:1.0;" x1="1050.2168" x2="1050.2168" y1="550.7534" y2="570.1558"/><polygon fill="#181818" points="1046.2168,560.1558,1050.2168,570.1558,1054.2168,560.1558,1050.2168,564.1558" style="stroke:#181818;stroke-width:1.0;"/><line style="stroke:#181818;stroke-width:1.0;" x1="1212.0049" x2="1212.0049" y1="550.7534" y2="686.6245"/><polygon fill="#181818" points="1208.0049,676.6245,1212.0049,686.6245,1216.0049,676.6245,1212.0049,680.6245" style="stroke:#181818;stroke-width:1.0;"/><line style="stroke:#181818;stroke-width:1.0;" x1="223.7119" x2="223.7119" y1="837.9644" y2="857.9644"/><polygon fill="#181818" points="219.7119,847.9644,223.7119,857.9644,227.7119,847.9644,223.7119,851.9644" style="stroke:#181818;stroke-width:1.0;"/><line style="stroke:#181818;stroke-width:1.0;" x1="394.9395" x2="394.9395" y1="811.062" y2="857.9644"/><polygon fill="#181818" points="390.9395,847.9644,394.9395,857.9644,398.9395,847.9644,394.9395,851.9644" style="stroke:#181818;stroke-width:1.0;"/><line style="stroke:#181818;stroke-width:1.0;" x1="575.7422" x2="575.7422" y1="837.062" y2="857.9644"/><polygon fill="#181818" points="571.7422,847.9644,575.7422,857.9644,579.7422,847.9644,575.7422,851.9644" style="stroke:#181818;stroke-width:1.0;"/><line style="stroke:#181818;stroke-width:1.0;" x1="819.9795" x2="819.9795" y1="805.0776" y2="857.9644"/><polygon fill="#181818" points="815.9795,847.9644,819.9795,857.9644,823.9795,847.9644,819.9795,851.9644" style="stroke:#181818;stroke-width:1.0;"/><line style="stroke:#181818;stroke-width:1.0;" x1="1050.2168" x2="1050.2168" y1="837.062" y2="857.9644"/><polygon fill="#181818" points="1046.2168,847.9644,1050.2168,857.9644,1054.2168,847.9644,1050.2168,851.9644" style="stroke:#181818;stroke-width:1.0;"/><line style="stroke:#181818;stroke-width:1.0;" x1="1212.0049" x2="1212.0049" y1="720.5933" y2="857.9644"/><polygon fill="#181818" points="1208.0049,847.9644,1212.0049,857.9644,1216.0049,847.9644,1212.0049,851.9644" style="stroke:#181818;stroke-width:1.0;"/><line style="stroke:#181818;stroke-width:1.0;" x1="631.4688" x2="631.4688" y1="529.2534" y2="549.2534"/><polygon fill="#181818" points="627.4688,539.2534,631.4688,549.2534,635.4688,539.2534,631.4688,543.2534" style="stroke:#181818;stroke-width:1.0;"/><line style="stroke:#181818;stroke-width:1.0;" x1="643.4688" x2="1286.1934" y1="889.9644" y2="889.9644"/><polygon fill="#181818" points="1282.1934,713.6089,1286.1934,703.6089,1290.1934,713.6089,1286.1934,709.6089" style="stroke:#181818;stroke-width:1.0;"/><line style="stroke:#181818;stroke-width:1.0;" x1="1286.1934" x2="1286.1934" y1="517.2534" y2="889.9644"/><line style="stroke:#181818;stroke-width:1.0;" x1="1286.1934" x2="643.4688" y1="517.2534" y2="517.2534"/><polygon fill="#181818" points="653.4688,513.2534,643.4688,517.2534,653.4688,521.2534,649.4688,517.2534" style="stroke:#181818;stroke-width:1.0;"/><line style="stroke:#181818;stroke-width:1.0;" x1="631.4688" x2="631.4688" y1="859.4644" y2="877.9644"/><polygon fill="#181818" points="627.4688,867.9644,631.4688,877.9644,635.4688,867.9644,631.4688,871.9644" style="stroke:#181818;stroke-width:1.0;"/><line style="stroke:#181818;stroke-width:1.0;" x1="631.4688" x2="631.4688" y1="485.2534" y2="505.2534"/><polygon fill="#181818" points="627.4688,495.2534,631.4688,505.2534,635.4688,495.2534,631.4688,499.2534" style="stroke:#181818;stroke-width:1.0;"/><!--SRC=[pLIzRi8m4Dxz53Sc4tiOAjIeLOTI2RfqTCc5M7Nio3w4g7Zu6fl4IKWbK3kGoVBv-pjVJ88ambkjHBvSm9FHYb0Li51S7goma2Dn8Hcpn0snx5a3QU1jjV1LQFWMvonRxAWwCb52ii926DnG2bIXWkG3RSh0VPPqmr1QX6IfK-QaHEbOaSQSHvQjKJgA4mCetACbiBlFMj3SIwpz6XoW54hO2ek72pLF740TxLZSO8ESWhb6Yh0Au67M4BAj-Y0T2FYM2nMXP-kjtxWVlBpaisxlsYpHrcMcjXQpTJi-uwy-tz7KGd7g1SiUTLsZekXms9PmHchRRyO4zv3_s7VKOvnqjKBTe8hqfJPV8_snnzEHAGDBJJWRQ0_8_X0jcBmfrwjsbt6O_uTwcCsDSQEBmENaY0x6zEhM-td_nhll_jddJHUGwxsIcXVWVdfjA60ZBZm5iA-4UnAJz0S0]--></g></svg>